<svg width="170" height="56" fill="none" xmlns="http://www.w3.org/2000/svg"><path d="m26.46 56 16.106-37.702 11.517-10.22-12.224 40.07L26.459 56ZM0 18.538 8.64 9.49 59.056 0 41.017 16.149 0 18.539Zm27.165 29.166 5.716-13.428-15.116-14.698-10.275.582 19.675 27.544ZM75.71 33.207h-3.962L70.6 30.3h-5.713l-1.085 2.907h-3.878l6.193-14.806h3.462l6.13 14.806Zm-6.102-5.783-1.828-5.07-1.872 5.07h3.7Zm17.048-5.97h-6.193v3.053h5.715v2.95h-5.715v5.75h-3.525V18.401h9.718v3.053Zm16.075 4.309c0 1.255-.236 2.37-.708 3.345-.472.977-1.109 1.756-1.908 2.343a8.76 8.76 0 0 1-2.638 1.318c-.98.296-2 .443-3.023.438h-5.506V18.401h5.338c.876 0 1.706.074 2.493.22a8.845 8.845 0 0 1 2.283.764 6.964 6.964 0 0 1 1.908 1.36c.534.543.963 1.243 1.282 2.1.32.857.481 1.83.481 2.918h-.002Zm-3.7 0c0-.795-.132-1.482-.396-2.06-.266-.578-.63-1.028-1.097-1.349a4.728 4.728 0 0 0-1.525-.691 7.354 7.354 0 0 0-1.807-.209h-1.775v8.658h1.691c1.435 0 2.611-.34 3.531-1.024.918-.684 1.378-1.79 1.378-3.325Zm24.864 7.444h-3.961l-1.148-2.907h-5.714l-1.084 2.907h-3.879l6.194-14.806h3.461l6.131 14.806Zm-6.101-5.783-1.828-5.07-1.872 5.07h3.7Zm20.071 4.885c-1.626.85-3.523 1.276-5.691 1.276-2.379 0-4.325-.722-5.84-2.165-1.515-1.443-2.272-3.322-2.272-5.636 0-2.328.76-4.206 2.282-5.636 1.523-1.429 3.431-2.143 5.725-2.143 1.14 0 2.217.177 3.232.532 1.014.356 1.836.835 2.461 1.433l-2.252 2.572c-.793-.92-1.898-1.38-3.316-1.38-1.251 0-2.287.44-3.107 1.318-.82.878-1.23 1.98-1.23 3.304 0 1.395.395 2.52 1.188 3.378.792.857 1.898 1.285 3.315 1.285.877 0 1.62-.131 2.231-.396v-2.7h-2.813v-2.885h6.087v7.843Zm14.991.898h-4.169l-3.192-5.877h-1.209v5.877h-3.503V18.401h5.629c.752 0 1.446.077 2.086.23.631.15 1.236.397 1.793.732.556.335.991.802 1.304 1.402.313.599.469 1.302.469 2.111 0 .976-.272 1.813-.814 2.51-.541.697-1.292 1.192-2.252 1.484l3.858 6.337Zm-6.689-11.92h-1.901v3.44h1.692c1.729 0 2.593-.599 2.593-1.793 0-1.099-.794-1.647-2.384-1.647Zm23.832 4.456c0 2.327-.757 4.22-2.273 5.676-1.514 1.457-3.44 2.187-5.776 2.187-2.321 0-4.241-.73-5.755-2.187-1.516-1.456-2.273-3.349-2.273-5.676 0-2.343.754-4.218 2.262-5.627 1.509-1.407 3.431-2.111 5.766-2.111 2.35 0 4.279.704 5.787 2.111C169.245 21.525 170 23.4 170 25.743h-.001Zm-3.827 0c0-1.31-.395-2.39-1.186-3.243-.792-.85-1.805-1.276-3.041-1.276-1.235 0-2.246.427-3.03 1.276-.785.851-1.178 1.932-1.178 3.243 0 1.337.393 2.44 1.178 3.303.784.865 1.795 1.297 3.03 1.297 1.236 0 2.248-.432 3.04-1.297.791-.864 1.186-1.965 1.186-3.303M59.788 41.375v-3.101h1.756v.281h-1.442v2.82h-.314Zm2.215 0v-3.101h.873c.323 0 .578.07.765.21.186.14.279.346.279.618s-.095.477-.284.619c-.19.142-.445.213-.768.213h-.551v1.441h-.314Zm.314-1.709h.533c.245 0 .431-.048.561-.143a.49.49 0 0 0 .194-.42c0-.372-.251-.557-.755-.557h-.533v1.12Zm2.367 1.744c-.1 0-.191-.009-.275-.027l.047-.297a.672.672 0 0 0 .224.034c.09.003.18-.026.251-.083a.9.9 0 0 0 .203-.262l.205-.381-1.201-2.12h.367l1.009 1.8.983-1.8h.344l-1.437 2.606a1.424 1.424 0 0 1-.31.396.626.626 0 0 1-.41.134Zm2.583-.035v-3.101h2.315v3.101h-.315v-2.821h-1.685v2.821h-.315Zm3.13 0v-3.101h2.314v3.101h-.314v-2.821H70.71v2.821h-.314Zm2.768 0 1.336-3.101h.305l1.328 3.101h-.348l-.341-.816h-1.599l-.335.816h-.346Zm.799-1.103h1.352l-.676-1.648-.676 1.648Zm3.72 1.103v-3.101H78v1.394h.004l1.472-1.394h.45l-1.56 1.406 1.646 1.695h-.463l-1.545-1.65H78v1.65h-.315Zm5.239-.384a1.559 1.559 0 0 1-1.153.462c-.463 0-.847-.154-1.152-.462-.307-.308-.46-.697-.46-1.167 0-.47.153-.859.459-1.167a1.558 1.558 0 0 1 1.152-.462c.464 0 .848.154 1.153.462.306.308.46.697.46 1.167 0 .47-.154.859-.46 1.167Zm-2.081-.21c.235.26.543.392.928.392s.694-.131.927-.393c.235-.26.352-.58.352-.956 0-.377-.117-.697-.351-.96-.234-.261-.543-.394-.927-.394-.385 0-.694.133-.93.394a1.39 1.39 0 0 0-.35.96c0 .376.117.696.35.956m3.192.595v-3.101h.48l1.05 2.567h.004l1.035-2.567h.48v3.101h-.314v-2.694h-.01l-1.118 2.694h-.166l-1.119-2.694h-.008v2.694h-.314Zm3.876 0v-3.101h2.313v3.101h-.314v-2.821h-1.685v2.821h-.314Zm2.768 0 1.336-3.101h.305l1.328 3.101h-.35l-.34-.816h-1.598l-.336.816h-.345Zm.796-1.103h1.357l-.678-1.648-.679 1.648Zm2.627 1.103v-3.101h.314v1.345H96.1v-1.345h.314v3.101H96.1v-1.467h-1.686v1.467H94.1Zm3.13 0v-3.101h.315v2.61h.007l1.704-2.61h.354v3.101h-.314v-2.636h-.01l-1.702 2.636h-.355Zm3.208.003v-3.1h.314v2.609h.009l1.703-2.61h.354v3.101h-.315v-2.637h-.008l-1.703 2.637h-.354Zm1.187-3.399a.645.645 0 0 1-.44-.151.602.602 0 0 1-.199-.41l.201-.04a.427.427 0 0 0 .438.364.43.43 0 0 0 .439-.363l.203.04a.607.607 0 0 1-.2.409.646.646 0 0 1-.441.151h-.001Z" fill="#fff"/></svg>