<svg width="91" height="44" fill="none" xmlns="http://www.w3.org/2000/svg"><g clip-path="url(#a)"><path d="M0 19.729c.347-1.016.69-2.033 1.04-3.048 1.005-2.928 2.011-5.858 3.024-8.785.062-.179 2.268-2.982 2.86-3.348 1.155-.715 2.378-1.337 3.62-1.9 1.763-.798 3.61-.867 5.514-.48 5.686 1.158 11.454 1.387 17.237 1.29 2.655-.045 5.307-.311 7.958-.29 1.98.015 3.956.387 5.938.49 1.985.102 3.977.08 5.968.077.171 0 .434-.244.499-.427.485-1.36 1.334-2.423 2.74-3.306.34 1.083.658 2.097 1.007 3.204.769-.266 1.62-.602 2.499-.847.602-.168 1.257-.34 1.856-.266.488.063.93.49 1.49.813 1.378-.83 3-1.156 4.745-.715v1.3c-.705.908-1.415 1.805-2.485 2.353-.13.066-.2.318-.223.492-.039.298-.027.604-.021.906.028 2.013.418 3.907 1.856 5.466.308.333.582.697.873 1.046v1.69c-.344.35-.629.888-1.042 1.01-.825.239-1.735.4-2.58.315-.901-.092-1.79-.454-2.647-.79-1.863-.725-2.925-.399-4.114 1.18-1.887 2.507-3.763 5.03-5.787 7.43-1.303 1.543-2.785 2.996-5.084 3.16-.16 1.152-.336 2.283-.47 3.422-.297 2.586-.54 5.183.086 7.75.225.929.645 1.81.977 2.717-1.638.677-2.649.236-3.276-1.436-.44-1.175-.972-2.322-1.347-3.516-.342-1.085-.532-2.217-.785-3.328-.023-.1-.033-.205-.05-.309-1.513 3.56-1.774 7 .946 10.15-2.09 1.058-4.027.183-5.314-2.363a87.42 87.42 0 0 0-.749.092c.081-.334.143-.6.214-.866.484-1.792.707-3.609.608-5.463-.105-1.944-.142-3.893-.303-5.832-.092-1.113-.372-2.211-.57-3.315-.105-.58-.408-.797-1.024-.604-.46.144-.947.22-1.429.276-1.514.172-3.026.402-4.548.461-2.916.111-5.432-.902-7.662-2.739-1.006-.828-2.1-1.597-3.265-2.183-1.56-.788-3.13-.502-4.449.612a11.692 11.692 0 0 0-1.95 2.11c-2.333 3.254-3.745 6.9-4.522 10.78-.207 1.037-.31 2.1-.375 3.156-.156 2.46.341 4.695 2.516 6.353-.873.158-1.72.278-2.568.302-.673.019-1.085-.375-1.294-1.01-.14-.427-.25-.95-.563-1.22-.617-.535-.716-1.117-.55-1.83.034-.144.011-.302.017-.453.127-3.435-.293-6.829-.868-10.207-.188-1.102-.059-2.105.644-3.013 1.176-1.52 1.633-3.287 1.817-5.143.278-2.808-.095-5.574-.609-8.326-.163-.877-.365-1.747-.549-2.62a19.625 19.625 0 0 0-2.18 5.461c-.434 1.838-.667 3.66.158 5.475.13.286.106.69.023 1.008-.395 1.517-2.068 1.93-3.478.879v-3.248Zm27.903 9.927c.193.291.55.6.875.65.292.044.701-.189.945-.416.307-.283.068-1.889-.263-2.138-.093-.07-.247-.075-.372-.08-3.24-.14-6.037-1.304-8.483-3.378-.76-.646-1.634-1.177-2.512-1.666-.83-.462-1.67-.313-2.405.288-1.123.915-1.888 2.09-2.637 3.412.829.568 1.553 1.283 2.43 1.614 1.522.578 2.034 1.52 1.804 3.045-.108.712.38 1.184.992 1.203.625.019 1.064-.463 1.085-1.213.013-.424.002-.85.002-1.28.975.096 1.463.589 1.464 1.477 0 .195-.006.391.011.584.053.553.392.885.933.928.548.044.923-.265 1.077-.779.062-.203.055-.427.057-.642.01-.867.455-1.363 1.335-1.49.035-.005.076.034.143.065.062.32.07.684.211.986.137.29.367.644.64.737.299.105.754.039 1.035-.125.44-.257.471-.727.355-1.215-.275-1.15-.263-1.152.844-1.633.02-.009.044-.005.136-.014.096.384.101.79.294 1.078l.004.002Zm-15.234-.465c.534 3.09.588 6.198.311 9.31-.152 1.717.328 3.26 1.174 4.704.213.361.725.743 1.125.773.99.074 1.995-.05 3.164-.103-.21-.24-.26-.309-.322-.363-1.346-1.156-2.164-2.628-2.203-4.351-.04-1.738.204-3.482.308-5.225.012-.193.01-.462-.106-.574-.843-.802-1.112-1.783-1.075-2.894.005-.172-.115-.418-.257-.51-.66-.427-1.35-.81-2.121-1.266 0 .21-.021.358.003.5l-.002-.002Z" fill="#fff"/></g><g clip-path="url(#b)"><path d="M91 26.008c-.18.222-.347.458-.546.665-.858.892-1.72 1.78-2.59 2.662-1.224 1.242-2.743 1.859-4.451 2.023-1.444.14-2.837-.077-4.109-.816-.412-.24-.78-.556-1.174-.842.402-.731.902-1.308 1.54-1.741 2.243-1.521 4.643-1.825 7.191-.865.199.074.415.235.592.199.172-.034.304-.268.452-.416l1.507-1.507c.625-.625 1.143-.56 1.588.2v.437ZM80.99 16c-.222.181-.46.347-.665.546-.818.793-1.635 1.586-2.433 2.4-.393.4-.809.803-1.101 1.274-1.305 2.102-1.54 4.341-.718 6.676.263.748.695 1.398 1.317 1.989.406-.341.852-.64 1.204-1.024 1.946-2.125 2.413-5.484 1.145-8.062-.082-.167-.07-.264.066-.397.66-.642 1.31-1.293 1.955-1.95.463-.473.345-1.103-.248-1.395-.03-.015-.057-.039-.085-.058h-.437ZM70.36 41.038c1.876.605 3.72.473 5.512-.319 1.079-.476 1.975-1.188 2.621-2.195.105-.164.1-.256-.046-.387A5.544 5.544 0 0 0 76.568 37c-1.92-.677-3.816-.561-5.667.245-1.16.506-2.115 1.275-2.76 2.417a5.198 5.198 0 0 0 2.219 1.376Zm16.37-22.934c-1.694.544-3.028 1.571-4.017 3.036-.815 1.206-1.266 2.53-1.13 4.015.016.177.06.244.249.263a5.412 5.412 0 0 0 2.543-.362c2.016-.793 3.446-2.204 4.302-4.185.402-.933.563-1.914.4-2.946a5.342 5.342 0 0 0-2.348.179Zm-18.116 19.73c1.624-1.876 2.105-4.066 1.648-6.475-.2-1.057-.657-2-1.394-2.797-.108-.116-.187-.195-.361-.08-.601.394-1.137.86-1.538 1.454-1.47 2.179-1.769 4.52-.899 6.997.26.737.691 1.378 1.312 1.968.417-.356.882-.663 1.232-1.068ZM81.65 32.02c-1.65-.61-3.317-.607-4.98-.072-1.398.45-2.572 1.223-3.39 2.48-.108.163-.12.262.039.408a5.422 5.422 0 0 0 2.008 1.18c2.145.691 4.207.46 6.169-.62a5.307 5.307 0 0 0 2.124-2.093 5.272 5.272 0 0 0-1.97-1.282Zm-10.09-6.447c-.8 1.48-1.105 3.053-.894 4.72.16 1.275.614 2.428 1.502 3.384.096.104.177.216.335.085.363-.3.782-.552 1.09-.901 1.621-1.84 2.11-4.005 1.704-6.385-.203-1.182-.711-2.23-1.597-3.093-.84.448-1.658 1.3-2.14 2.19Zm-6.032 14.449c-.725.73-1.458 1.452-2.18 2.185-.464.47-.46 1.117-.007 1.523.43.387 1.014.355 1.466-.093.905-.898 1.804-1.802 2.704-2.703.03-.03.054-.066.096-.119-.658-.297-1.126-.76-1.442-1.468-.239.253-.434.469-.638.674Z" fill="#fff"/></g><defs><clipPath id="a"><path fill="#fff" d="M0 0h68v44H0z"/></clipPath><clipPath id="b"><path fill="#fff" transform="translate(63 16)" d="M0 0h28v28H0z"/></clipPath></defs></svg>