<svg width="100" height="100" fill="none" xmlns="http://www.w3.org/2000/svg"><g clip-path="url(#a)"><path d="M50 100c27.614 0 50-22.386 50-50S77.614 0 50 0 0 22.386 0 50s22.386 50 50 50Z" fill="#639"/><path d="M38.95 63H37.3c-1.33-.01-2.29-1.15-2.3-2.71V47.8c0-1.92 1.19-2.78 2.38-2.78h3.23c1.42 0 2.37 1.11 2.37 2.76 0 4.17.01 8.35.01 12.53 0 1.56-.97 2.7-2.31 2.71h-1.74l.01-.02Zm.04-16h-1.61c-.09 0-.38 0-.38.78v12.49c0 .29.08.71.31.72h3.36c.21 0 .32-.37.32-.71 0-4.17 0-8.35-.01-12.52 0-.5-.13-.76-.38-.76h-1.61Zm20.8 16h-.04c-2.79-.03-5.57-.06-8.36-.08l-3.65-.04c-.36 0-.72 0-1.08-.01-1.52-.03-2.66-1.18-2.67-2.68V46.92c0-.68.26-1.32.75-1.87.59-.66 1.24-1.37 1.95-2.02.7-.65 1.41-1.28 2.13-1.91.39-.34.77-.68 1.16-1.03.1-.09.2-.2.29-.3.08-.08.15-.17.23-.24.46-.46.67-.97.67-1.65 0-.72.06-1.43.12-2.12.02-.29.05-.57.07-.86 0-.06.01-.14.03-.21.25-1.34.96-1.85 2.3-1.67 2.16.3 3.49 1.68 3.76 3.91.25 2.08-.28 4.02-.78 5.47-.2.57-.41 1.13-.64 1.71h6.47c1.77 0 2.65.96 3.09 1.76.46.86.54 1.86.2 2.75-.21.56-.58 1.06-1.05 1.43.34.71.44 1.5.25 2.27-.18.73-.59 1.36-1.16 1.81.35.68.43 1.44.24 2.23-.14.58-.46 1.3-1.19 1.85.44.87.39 1.71.22 2.33-.4 1.49-1.7 2.45-3.31 2.45V63Zm-6.43-27.98v.05c-.03.28-.05.57-.07.87-.06.68-.11 1.32-.11 1.97 0 1.19-.43 2.22-1.25 3.05l-.19.2c-.14.15-.28.3-.43.43-.39.35-.78.69-1.17 1.04-.7.62-1.4 1.23-2.09 1.87-.65.6-1.26 1.27-1.82 1.89-.24.26-.24.47-.24.53v13.27c0 .4.28.67.71.68.35 0 .7 0 1.05.01l3.66.04c2.78.03 5.57.06 8.35.08.75.02 1.24-.36 1.4-.97.1-.38.13-.86-.48-1.44a1.006 1.006 0 0 1 .39-1.68c.78-.25.97-.67 1.05-1.01.08-.35.1-.82-.48-1.37a.996.996 0 0 1 .41-1.69c.5-.14.87-.52.99-1 .12-.49-.05-1-.47-1.4a.977.977 0 0 1-.29-.91c.06-.33.3-.61.61-.74l.21-.08c.39-.14.67-.42.81-.78.13-.35.1-.75-.09-1.1-.19-.35-.5-.71-1.33-.71h-7.94c-.33 0-.64-.16-.83-.44a.994.994 0 0 1-.11-.93c.13-.34.26-.67.39-.99.27-.67.53-1.33.76-2 .45-1.33.88-2.91.68-4.58-.16-1.32-.79-1.99-2.05-2.17h-.05l.02.01ZM54.75 81c-.13 0-.27-.03-.4-.08L50 79.04l-4.35 1.88c-.36.15-.77.09-1.06-.17l-3.56-3.14-4.72.45a.96.96 0 0 1-.95-.49l-2.42-4.08-4.63-1.04c-.38-.08-.67-.38-.76-.76l-1.04-4.63-4.08-2.42c-.33-.2-.52-.57-.49-.95l.45-4.72-3.14-3.56c-.26-.29-.32-.7-.17-1.06L20.96 50l-1.88-4.35c-.15-.36-.09-.77.17-1.06l3.14-3.56-.45-4.72c-.04-.39.15-.76.49-.95l4.08-2.42 1.04-4.63c.08-.38.38-.67.76-.76l4.63-1.04 2.42-4.08c.2-.33.57-.53.95-.49l4.72.45 3.56-3.14c.29-.26.7-.32 1.06-.17L50 20.96l4.35-1.88c.36-.15.77-.09 1.06.17l3.56 3.14 4.72-.45c.39-.05.76.15.95.49l2.42 4.08 4.63 1.04c.38.08.67.38.76.76l1.04 4.63 4.08 2.42c.33.2.52.57.49.95l-.45 4.72 3.14 3.56c.26.29.32.7.17 1.06L79.04 50l1.88 4.35c.15.36.09.77-.17 1.06l-3.14 3.56.45 4.72c.04.39-.15.76-.49.95l-4.08 2.42-1.04 4.63c-.08.38-.38.67-.76.76l-4.63 1.04-2.42 4.08c-.2.33-.57.54-.95.49l-4.72-.45-3.56 3.14c-.19.16-.42.25-.66.25ZM50 76.94c.13 0 .27.03.4.08l4.17 1.8 3.41-3c.21-.18.48-.27.75-.25l4.52.43 2.31-3.91c.14-.24.37-.41.64-.47l4.43-.99.99-4.43c.06-.27.23-.5.47-.64L76 63.25l-.43-4.52c-.03-.27.06-.55.25-.75l3-3.41-1.8-4.17a.987.987 0 0 1 0-.79l1.8-4.17-3-3.41c-.18-.21-.27-.48-.25-.75l.43-4.52-3.91-2.31a.988.988 0 0 1-.47-.64l-.99-4.43-4.43-.99a.988.988 0 0 1-.64-.47l-2.31-3.91-4.52.43a.983.983 0 0 1-.75-.25l-3.41-3-4.17 1.8c-.25.11-.54.11-.79 0l-4.17-1.8-3.41 3c-.21.18-.48.27-.75.25l-4.52-.43-2.31 3.91c-.14.24-.37.41-.64.47l-4.43.99-.99 4.43c-.06.27-.23.5-.47.64l-3.91 2.31.43 4.52c.03.27-.06.55-.25.75l-3 3.41 1.8 4.17c.11.25.11.54 0 .79l-1.8 4.17 3 3.41c.18.21.27.48.25.75l-.43 4.52 3.91 2.31c.24.14.41.37.47.64l.99 4.43 4.43.99c.27.06.5.23.64.47L36.76 76l4.52-.43c.27-.03.55.06.75.25l3.41 3 4.17-1.8c.13-.05.26-.08.4-.08H50ZM20 61h-5.58l3.81-10.66c.08-.22.08-.46 0-.67l-3.81-10.66H20v-2h-7c-.33 0-.63.16-.82.42-.19.26-.23.61-.12.91L16.23 50l-4.17 11.66c-.11.31-.06.65.12.91a1 1 0 0 0 .82.42h7v-2V61Zm67.82 1.58c.19-.27.23-.61.12-.91l-4.17-11.66 4.17-11.66c.11-.31.06-.65-.12-.91a1 1 0 0 0-.82-.42h-7v2h5.58l-3.81 10.66c-.08.22-.08.46 0 .67l3.81 10.66H80v2h7c.33 0 .63-.16.82-.42v-.01Z" fill="#fff"/></g><defs><clipPath id="a"><path fill="#fff" d="M0 0h100v100H0z"/></clipPath></defs></svg>