<svg width="100" height="100" fill="none" xmlns="http://www.w3.org/2000/svg"><g clip-path="url(#a)"><path d="M50 100c27.614 0 50-22.386 50-50S77.614 0 50 0 0 22.386 0 50s22.386 50 50 50Z" fill="#639"/><path d="M30.56 80c-1.15-.44-1.65-1.28-1.54-2.51.04-.45 0-.9 0-1.35.01-1.32.8-2.11 2.11-2.13H32v-.81c.06-2.11-.03-4.23.21-6.31.37-3.25 1.88-6.01 4.27-8.25 1.38-1.3 2.82-2.52 4.24-3.78 3.09-2.74 3.09-6.99 0-9.73-1.24-1.1-2.49-2.19-3.73-3.3-3.33-2.96-4.96-6.68-4.98-11.12v-4.72c-.41 0-.73.01-1.06 0-1.07-.04-1.88-.84-1.91-1.9-.02-.72-.02-1.45 0-2.17.03-1.04.83-1.84 1.86-1.91.17-.01.35 0 .53 0h37.18c1.67 0 2.39.72 2.39 2.38v1.58c-.02 1.2-.83 2-2.04 2.03h-.94v.8c-.06 2.11.03 4.23-.21 6.31-.37 3.27-1.9 6.04-4.3 8.29-1.35 1.27-2.76 2.47-4.16 3.7-3.15 2.77-3.16 7.04 0 9.8 1.26 1.11 2.53 2.21 3.77 3.33 3.28 2.95 4.88 6.65 4.9 11.04V74h.93c1.23.02 2.03.83 2.05 2.07 0 .47-.03.94 0 1.41.1 1.23-.39 2.07-1.54 2.51h-38.9V80Zm35.26-5.89.17-.17c0-1.72.03-3.43 0-5.15-.09-3.63-1.51-6.65-4.21-9.07-1.26-1.13-2.54-2.25-3.82-3.37-3.98-3.51-3.99-9.17-.02-12.69 1.18-1.05 2.36-2.1 3.56-3.13 2.02-1.74 3.44-3.87 4.1-6.47.66-2.62.35-5.28.38-7.93 0-.03-.04-.07-.06-.11H34.06c-.02.14-.05.25-.05.37 0 1.64-.03 3.28.02 4.92.11 3.56 1.52 6.53 4.16 8.92 1.26 1.14 2.55 2.25 3.82 3.37 4.06 3.61 4.05 9.19-.01 12.81-1.37 1.22-2.77 2.41-4.11 3.66-2.05 1.92-3.39 4.28-3.68 7.07-.23 2.22-.13 4.48-.17 6.72 0 .03.04.07.05.1.45.19.73-.09 1.03-.35 4.18-3.55 8.36-7.1 12.57-10.62.48-.4 1.07-.73 1.67-.9 1.2-.33 2.18.19 3.09.97 4.15 3.53 8.31 7.05 12.47 10.55.26.22.6.33.9.5Zm-3.6-.14c-.26-.23-.41-.37-.57-.51-3.49-2.95-6.97-5.9-10.46-8.85-.96-.82-1.38-.82-2.33-.02-3.53 2.99-7.06 5.98-10.59 8.96-.13.11-.27.2-.41.29l.09.12h24.28l-.01.01ZM31.05 23.95h37.88v-1.92H31.05v1.92Zm37.91 52.1H31.07v1.92h37.89v-1.92Zm-18.9-48.06h11.53c1.65 0 2.36.74 2.4 2.39.08 3.55-1.26 6.41-3.93 8.75-2.33 2.05-4.55 4.21-6.8 6.35-.39.37-.7.84-1.01 1.28-.85 1.2-1.44 2.47-1.27 4.02.1.98.03 1.99.02 2.98 0 .75-.38 1.2-.98 1.22-.62.02-1.02-.45-1.02-1.23 0-1.33.02-2.66-.02-3.98a3.6 3.6 0 0 0-.28-1.29c-.81-1.89-2.16-3.38-3.64-4.75-1.65-1.54-3.33-3.07-5.05-4.53-2.8-2.37-4.14-5.35-4.01-9 .05-1.42.81-2.21 2.23-2.21h11.83Zm11.9 2.04H38.05c-.17 2.22.28 4.25 1.67 5.96.72.89 1.61 1.64 2.45 2.42 2.03 1.88 4.27 3.54 6.02 5.72.62.77 1.2 1.57 1.83 2.39.09-.11.16-.19.22-.28 1.34-2.01 2.96-3.77 4.79-5.35 1.44-1.23 2.86-2.48 4.25-3.77 2.06-1.9 2.88-4.29 2.68-7.1v.01ZM49.02 59.07c.07.56.43.9.96.91.55.01.94-.34 1.01-.92.02-.19.02-.39.02-.58 0-1.01-.31-1.47-1.01-1.46-.69 0-1 .46-.98 1.47 0 .19-.02.39 0 .58ZM26 64h-4c-.55 0-1-.45-1-1V52h-4c-.39 0-.75-.23-.91-.59-.16-.36-.1-.78.16-1.07l7-8c.38-.43 1.12-.43 1.51 0l7 8a1 1 0 0 1-.75 1.66h-4v11c0 .55-.45 1-1 1H26Zm-3-2h2V51c0-.55.45-1 1-1h2.8L24 44.52 19.2 50H22c.55 0 1 .45 1 1v11Zm55 2h-4c-.55 0-1-.45-1-1V52h-4c-.39 0-.75-.23-.91-.59-.16-.36-.1-.78.16-1.07l7-8c.38-.43 1.12-.43 1.51 0l7 8a1 1 0 0 1-.75 1.66h-4v11c0 .55-.45 1-1 1H78Zm-3-2h2V51c0-.55.45-1 1-1h2.8L76 44.52 71.2 50H74c.55 0 1 .45 1 1v11Z" fill="#fff"/></g><defs><clipPath id="a"><path fill="#fff" d="M0 0h100v100H0z"/></clipPath></defs></svg>