<svg width="100" height="100" fill="none" xmlns="http://www.w3.org/2000/svg"><g clip-path="url(#a)"><path d="M50 100c27.614 0 50-22.386 50-50S77.614 0 50 0 0 22.386 0 50s22.386 50 50 50Z" fill="#639"/><path d="M68.33 50.53v-2.09H42.15v-2.11H68.3v-2.12H32.12c-1.29 0-1.56-.28-1.56-1.59v-3.41c0-.94.37-1.3 1.32-1.3h37.2c1.04 0 1.37.35 1.37 1.46v40.51h6.25V30.61c-1.48-.36-3-.74-4.52-1.1-7-1.69-14.01-3.39-21.01-5.06-.37-.09-.79-.12-1.15-.03-8.39 2.01-16.77 4.03-25.15 6.06-.19.05-.37.1-.61.17v13.53h-2.08V31.14c-.63.15-1.18.28-1.72.4-.86.19-1.43-.23-1.44-1.1-.02-1.29 0-2.58 0-3.87 0-.79.24-1.08 1.03-1.28 6.13-1.48 12.27-2.96 18.4-4.45 3.84-.93 7.68-1.86 11.53-2.77.31-.07.66-.1.96-.03 9.98 2.39 19.95 4.8 29.93 7.21.94.23 1.14.5 1.14 1.46v3.61c0 1.01-.54 1.42-1.53 1.19-.51-.12-1.02-.23-1.58-.36v48.73h3.06v2.08H61.07v-2.04h7.26V56.83H42.15v-2.11H68.3v-2.11H42.14v-2.09h26.2l-.01.01Zm-47.2-23.35v2.01c.26-.05.49-.09.72-.15 9.36-2.26 18.71-4.52 28.07-6.76.34-.08.74-.1 1.09-.01 7.77 1.86 15.54 3.73 23.3 5.6 1.84.44 3.68.89 5.56 1.34V27.2c-.17-.05-.31-.11-.46-.14-9.46-2.29-18.93-4.57-28.39-6.85-.32-.08-.7-.07-1.02 0-4.88 1.16-9.76 2.35-14.64 3.53-4.73 1.14-9.46 2.29-14.22 3.44h-.01Zm47.19 12.87H32.71v2.02h35.61v-2.02ZM40.01 63.1h17.4c1.2 0 1.5.31 1.5 1.52V80.5c0 1.2-.31 1.5-1.52 1.5H20.52c-1.2 0-1.51-.31-1.51-1.51V47.82c0-1.21.3-1.51 1.5-1.51h18.04c1.12 0 1.45.33 1.45 1.44v15.36l.01-.01Zm-6.3-14.67v4.92c0 .99-.36 1.35-1.33 1.36h-5.51c-1.26 0-1.55-.29-1.55-1.53v-4.73h-4.17v14.63h16.71V48.44H33.7l.01-.01Zm0 16.81v5.02c0 .83-.38 1.24-1.18 1.24-2.01.01-4.02.01-6.04 0-.78 0-1.17-.4-1.18-1.18-.01-1.49 0-2.97 0-4.46 0-.21-.02-.42-.03-.62h-4.13v14.62h16.72V65.24H33.7h.01Zm23.05 14.63V65.24h-4.15v5.07c0 .78-.4 1.19-1.16 1.2-2.03.01-4.07.01-6.1 0-.73 0-1.12-.41-1.13-1.16-.02-.9 0-1.79 0-2.69v-2.4h-4.17v14.62h16.72l-.01-.01Zm-25.2-27.3v-4.12h-4.12v4.12h4.12Zm-4.11 12.66v4.12h4.12v-4.12h-4.12Zm23.01 4.16v-4.14h-4.11v4.14h4.11Zm.02-34.64c-.72 0-1.44.02-2.16 0a3.14 3.14 0 0 1-3.06-3.13c0-1.69 1.34-3.11 3.04-3.15 1.46-.03 2.93-.03 4.39 0 1.71.03 3.06 1.44 3.06 3.13s-1.34 3.1-3.04 3.15c-.74.02-1.49 0-2.23 0Zm.05-4.2c-.68 0-1.36-.01-2.03 0-.68.02-1.12.43-1.13 1.02-.01.62.44 1.06 1.15 1.07 1.33.01 2.67.01 4 0 .68 0 1.12-.43 1.13-1.02.01-.62-.44-1.05-1.15-1.07-.66-.01-1.31 0-1.97 0ZM33.74 60.96h2.02v-2.03h-2.02v2.03Zm0 14.77v2.02h2.03v-2.02h-2.03Zm20.91 2.02v-2h-2.04v2h2.04Z" fill="#fff"/></g><defs><clipPath id="a"><path fill="#fff" d="M0 0h100v100H0z"/></clipPath></defs></svg>