<svg width="100" height="100" fill="none" xmlns="http://www.w3.org/2000/svg"><g clip-path="url(#a)"><path d="M50 100c27.614 0 50-22.386 50-50S77.614 0 50 0 0 22.386 0 50s22.386 50 50 50Z" fill="#639"/><path d="M72.38 20c.5.36.62.86.62 1.47-.01 19.02-.01 38.05-.01 57.07 0 1.2-.27 1.46-1.49 1.46H28.49c-1.22 0-1.49-.26-1.49-1.46.01-19.03.01-38.05 0-57.07 0-.61.11-1.11.62-1.47h44.76Zm-43.32 2.02v55.94h41.89V22.02H29.06Zm26.93 48.73v-3.98c0-.35-.08-.6-.36-.86-2.5-2.27-3.31-5.8-2.07-8.89 1.25-3.1 4.25-5.08 7.62-5.02 3.18.06 6.07 2.07 7.25 5.06 1.19 3.01.47 6.43-1.9 8.67-.41.39-.56.77-.55 1.31.02 2.54.02 5.08 0 7.61 0 .36-.12.78-.34 1.06-.32.42-.84.38-1.36 0-.97-.72-1.95-1.44-2.9-2.18-.28-.22-.47-.23-.76 0-.94.73-1.9 1.43-2.85 2.15-.36.27-.73.45-1.19.23-.47-.23-.6-.63-.6-1.11v-4.04l.01-.01Zm-.98-10.73c.01 3.32 2.71 6 6.01 5.97a5.996 5.996 0 0 0 5.97-6.02c0-3.3-2.72-5.99-6.02-5.98a5.99 5.99 0 0 0-5.96 6.03Zm8.95 7.4c-2.03.77-3.97.73-5.92.02v5.52c.81-.61 1.54-1.15 2.27-1.71.45-.34.89-.35 1.35-.02.24.17.47.35.7.53l1.6 1.19v-5.53ZM33.05 35.04v1.93h32.92v-1.93H33.05Zm32.92 3.99H33.04v1.94h32.93v-1.94Zm0 5.92v-1.92H33.03v1.92h32.94Zm-32.93 2.09v1.91h32.94v-1.91H33.04Zm16.91 5.93v-1.93H33.04v1.93h16.91Zm-6.91-26.94v1.91h13.95v-1.91H43.04Zm3.01 5.92h7.91v-1.92h-7.91v1.92Zm-6.08 33.02v-1.93h-5.94v1.93h5.94Zm0 2.06h-5.93v1.94h5.93v-1.94Zm-.02 5.92v-1.93h-5.91v1.93h5.92-.01Z" fill="#fff"/></g><defs><clipPath id="a"><path fill="#fff" d="M0 0h100v100H0z"/></clipPath></defs></svg>