<svg width="100" height="100" fill="none" xmlns="http://www.w3.org/2000/svg"><g clip-path="url(#a)"><path d="M50 100c27.614 0 50-22.386 50-50S77.614 0 50 0 0 22.386 0 50s22.386 50 50 50Z" fill="#639"/><path d="M23.4 55.37c-.162 0-.325-.042-.477-.113L20.57 54.01l-2.354 1.247a.983.983 0 0 1-1.065-.082 1.027 1.027 0 0 1-.406-1.001l.446-2.636-1.897-1.87a1.033 1.033 0 0 1-.253-1.053c.121-.367.436-.643.821-.695l2.628-.388 1.177-2.4c.345-.696 1.48-.696 1.816 0l1.177 2.4 2.627.389c.386.05.7.327.822.694.121.368.02.777-.254 1.053l-1.897 1.87.446 2.636c.061.388-.09.766-.405 1a.976.976 0 0 1-.599.195Zm-2.82-3.536c.162 0 .324.04.477.112l1.004.532-.193-1.124a1.02 1.02 0 0 1 .294-.91l.812-.797-1.116-.163a.992.992 0 0 1-.76-.562L20.6 47.9l-.497 1.022a1.03 1.03 0 0 1-.76.562l-1.117.163.812.797c.243.235.345.572.294.91l-.193 1.123 1.005-.53a.993.993 0 0 1 .476-.113h-.04Zm6.97-11.791c-.163 0-.325-.04-.477-.112l-2.354-1.247-2.354 1.247a.985.985 0 0 1-1.065-.082 1.027 1.027 0 0 1-.406-1.002l.447-2.636-1.898-1.87a1.02 1.02 0 0 1-.253-1.042c.122-.367.436-.643.822-.694l2.627-.389 1.177-2.4c.345-.695 1.481-.695 1.816 0l1.177 2.4 2.627.389c.386.05.7.327.822.694.122.368.02.777-.254 1.043l-1.897 1.87.447 2.635a1.04 1.04 0 0 1-.406 1.002.977.977 0 0 1-.599.194Zm-2.821-3.535c.162 0 .325.04.477.112l1.004.531-.193-1.123a1.02 1.02 0 0 1 .295-.91l.811-.797-1.116-.163a.992.992 0 0 1-.76-.562l-.498-1.022-.497 1.022a1.03 1.03 0 0 1-.76.562l-1.117.163.812.797c.243.235.345.572.294.91l-.193 1.123 1.005-.53a.993.993 0 0 1 .477-.113h-.041Zm53.565 3.535c-.162 0-.324-.04-.477-.112l-2.353-1.247-2.354 1.247a.985.985 0 0 1-1.065-.082 1.027 1.027 0 0 1-.406-1.002l.447-2.636-1.897-1.87a1.02 1.02 0 0 1-.254-1.042c.122-.367.436-.643.822-.694l2.627-.389 1.177-2.4c.345-.695 1.481-.695 1.816 0l1.177 2.4 2.627.389c.386.05.7.327.822.694.122.368.02.777-.254 1.043l-1.897 1.87.447 2.635a1.04 1.04 0 0 1-.406 1.002.977.977 0 0 1-.599.194Zm-2.82-3.535c.162 0 .325.04.477.112l1.004.531-.193-1.123a1.02 1.02 0 0 1 .295-.91l.811-.797-1.116-.163a.992.992 0 0 1-.76-.562l-.498-1.022-.497 1.022a1.03 1.03 0 0 1-.76.562l-1.117.163.812.797c.243.235.345.572.294.91l-.193 1.123 1.005-.53a.993.993 0 0 1 .477-.113h-.041ZM27.55 70.031c-.163 0-.325-.04-.477-.112l-2.354-1.247-2.354 1.247a.985.985 0 0 1-1.065-.082 1.027 1.027 0 0 1-.406-1.001l.447-2.636-1.898-1.87a1.02 1.02 0 0 1-.253-1.042c.122-.368.436-.644.822-.695l2.627-.388 1.177-2.401c.345-.695 1.481-.695 1.816 0l1.177 2.4 2.627.389c.386.051.7.327.822.695.122.368.02.776-.254 1.042l-1.897 1.87.447 2.636c.06.388-.092.766-.406 1.001a.976.976 0 0 1-.599.194Zm-2.821-3.535c.162 0 .325.04.477.112l1.004.532-.193-1.124a1.02 1.02 0 0 1 .295-.91l.811-.796-1.116-.164a.992.992 0 0 1-.76-.562l-.498-1.022-.497 1.022c-.152.307-.436.51-.76.562l-1.117.163.812.797c.243.235.345.573.294.91l-.193 1.124 1.005-.532a.993.993 0 0 1 .477-.112h-.041Zm53.565 3.535a1.04 1.04 0 0 1-.466-.112l-2.354-1.247-2.354 1.247a.986.986 0 0 1-1.065-.082 1.027 1.027 0 0 1-.406-1.001l.447-2.636-1.897-1.87a1.02 1.02 0 0 1-.254-1.042c.122-.368.436-.644.822-.695l2.627-.388 1.177-2.401c.345-.695 1.481-.695 1.816 0l1.177 2.4 2.627.389c.386.051.7.327.822.695.122.368.02.776-.254 1.042l-1.897 1.87.447 2.636c.06.388-.092.766-.406 1.001a.976.976 0 0 1-.599.194h-.01Zm-2.82-3.535c.162 0 .325.04.467.112l1.004.532-.193-1.124a1.02 1.02 0 0 1 .294-.91l.812-.796-1.116-.164a.992.992 0 0 1-.76-.562l-.498-1.022-.497 1.022c-.152.307-.436.51-.76.562l-1.117.163.812.797c.243.235.345.573.294.91l-.193 1.124 1.005-.532a.954.954 0 0 1 .466-.112h-.02ZM82.24 55.37a1.13 1.13 0 0 1-.476-.113L79.41 54.01l-2.353 1.247a.984.984 0 0 1-1.066-.082 1.027 1.027 0 0 1-.405-1.001l.446-2.636-1.897-1.87a1.033 1.033 0 0 1-.254-1.053c.122-.367.436-.643.822-.695l2.627-.388 1.177-2.4c.345-.696 1.481-.696 1.816 0l1.177 2.4 2.628.389c.385.05.7.327.821.694.122.368.02.777-.253 1.053l-1.897 1.87.446 2.636c.06.388-.091.766-.406 1a.976.976 0 0 1-.598.195Zm-2.82-3.536c.163 0 .325.04.477.112l1.004.532-.192-1.124c-.061-.327.05-.675.294-.91l.811-.797-1.115-.163a.992.992 0 0 1-.761-.562L79.44 47.9l-.498 1.022a1.03 1.03 0 0 1-.76.562l-1.116.163.811.797c.244.235.345.572.294.91l-.192 1.123 1.004-.53a.993.993 0 0 1 .477-.113h-.04ZM52.82 85a.937.937 0 0 1-.466-.123L50 83.631l-2.354 1.246a.984.984 0 0 1-1.065-.081 1.027 1.027 0 0 1-.406-1.002l.447-2.636-1.897-1.87a1.032 1.032 0 0 1-.254-1.052 1.03 1.03 0 0 1 .822-.695l2.627-.388 1.177-2.401c.345-.695 1.481-.695 1.816 0l1.177 2.4 2.627.39c.386.05.7.326.822.694.122.368.02.776-.253 1.052l-1.898 1.87.447 2.636a1.04 1.04 0 0 1-.406 1.002.976.976 0 0 1-.599.194l-.01.01ZM50 81.465c.162 0 .325.04.467.122l1.004.532-.193-1.124a.99.99 0 0 1 .294-.9l.812-.796-1.116-.164a.992.992 0 0 1-.76-.562l-.498-1.022-.497 1.022a1.024 1.024 0 0 1-.76.562l-1.117.163.812.797c.243.236.345.573.294.9l-.193 1.124 1.005-.532a.965.965 0 0 1 .466-.122H50Zm2.82-55.727c-.162 0-.324-.04-.477-.112L49.99 24.38l-2.354 1.246a.984.984 0 0 1-1.065-.082 1.027 1.027 0 0 1-.406-1l.447-2.637-1.898-1.87a1.02 1.02 0 0 1-.253-1.042c.122-.368.436-.644.822-.695l2.627-.388 1.177-2.401c.345-.695 1.481-.695 1.816 0l1.177 2.4 2.627.39c.386.05.7.326.822.694.122.368.02.776-.254 1.042l-1.897 1.87.447 2.636c.06.388-.092.766-.406 1.001a.977.977 0 0 1-.599.194ZM50 22.203c.162 0 .325.041.477.113l1.004.531-.193-1.124c-.06-.327.051-.674.295-.91l.811-.796-1.116-.164a.992.992 0 0 1-.76-.562l-.498-1.021-.497 1.021a1.024 1.024 0 0 1-.76.562l-1.117.164.812.797c.244.235.345.572.294.91l-.193 1.123 1.005-.531a.991.991 0 0 1 .477-.113H50Zm-11.9 7.623a1.12 1.12 0 0 1-.477-.113l-2.343-1.247-2.354 1.247a.985.985 0 0 1-1.065-.082 1.027 1.027 0 0 1-.406-1.001l.447-2.636-1.898-1.87a1.02 1.02 0 0 1-.253-1.042c.121-.368.436-.644.822-.695L33.2 22l1.177-2.401c.345-.695 1.481-.695 1.816 0l1.177 2.4 2.627.39c.386.05.7.326.822.694.122.368.02.776-.254 1.042l-1.897 1.87.447 2.636c.06.388-.092.766-.406 1.001a.976.976 0 0 1-.599.195h-.01Zm-2.82-3.536c.162 0 .324.041.477.113l1.004.53-.193-1.123a1.02 1.02 0 0 1 .294-.91l.812-.796-1.116-.164a.992.992 0 0 1-.76-.562l-.498-1.021-.497 1.021a1.024 1.024 0 0 1-.76.562l-1.117.164.812.797c.243.235.345.572.294.909l-.193 1.124 1.005-.531a.993.993 0 0 1 .476-.113h-.04Zm32.595 3.536c-.162 0-.324-.041-.476-.113l-2.354-1.247-2.354 1.247a.985.985 0 0 1-1.065-.082 1.027 1.027 0 0 1-.406-1.001l.447-2.636-1.897-1.87a1.02 1.02 0 0 1-.254-1.042c.122-.368.436-.644.822-.695L62.965 22l1.177-2.401c.345-.695 1.481-.695 1.816 0l1.177 2.4 2.627.39c.386.05.7.326.822.694.122.368.02.776-.254 1.042l-1.897 1.87.447 2.636c.06.388-.091.766-.406 1.001a.976.976 0 0 1-.599.195Zm-2.82-3.536c.162 0 .325.041.477.113l1.004.53-.192-1.123c-.061-.327.05-.674.294-.91l.811-.796-1.116-.164a.992.992 0 0 1-.76-.562l-.498-1.021-.497 1.021a1.024 1.024 0 0 1-.76.562l-1.116.164.811.797c.244.235.345.572.294.909l-.193 1.124 1.005-.531a.993.993 0 0 1 .477-.113h-.04ZM38.1 80.913a.991.991 0 0 1-.477-.123l-2.343-1.246-2.354 1.246a.984.984 0 0 1-1.065-.081 1.027 1.027 0 0 1-.406-1.002l.447-2.636-1.898-1.87a1.033 1.033 0 0 1-.253-1.052 1.03 1.03 0 0 1 .822-.695l2.627-.388 1.177-2.401c.345-.695 1.481-.695 1.816 0l1.177 2.401 2.627.388c.386.051.7.327.822.695.122.368.02.776-.254 1.052l-1.897 1.87.447 2.636a1.04 1.04 0 0 1-.406 1.002.976.976 0 0 1-.599.194l-.01.01Zm-2.82-3.535c.162 0 .324.04.477.122l1.004.532-.193-1.124a.99.99 0 0 1 .294-.9l.812-.796-1.116-.164a.992.992 0 0 1-.76-.562l-.498-1.022-.497 1.022a1.051 1.051 0 0 1-.76.562l-1.117.164.812.797c.243.235.345.572.294.899l-.193 1.124 1.005-.532a1.01 1.01 0 0 1 .476-.122h-.04Zm32.595 3.535a.938.938 0 0 1-.466-.123l-2.354-1.246-2.354 1.246a.984.984 0 0 1-1.065-.081 1.027 1.027 0 0 1-.406-1.002l.447-2.636-1.897-1.87a1.033 1.033 0 0 1-.254-1.052 1.03 1.03 0 0 1 .822-.695l2.627-.388 1.177-2.401c.345-.695 1.481-.695 1.816 0l1.177 2.401 2.627.388c.386.051.7.327.822.695.122.368.02.776-.253 1.052l-1.897 1.87.446 2.636c.06.389-.091.767-.406 1.002a.976.976 0 0 1-.598.194l-.01.01Zm-2.82-3.535c.162 0 .325.04.467.122l1.004.532-.193-1.124a.99.99 0 0 1 .295-.9l.811-.796-1.116-.164a.992.992 0 0 1-.76-.562l-.498-1.022-.497 1.022a1.051 1.051 0 0 1-.76.562l-1.117.164.812.797c.243.235.345.572.294.899l-.193 1.124 1.005-.532a.965.965 0 0 1 .466-.122h-.02Z" fill="#fff"/></g><defs><clipPath id="a"><path fill="#fff" d="M0 0h100v100H0z"/></clipPath></defs></svg>