<svg width="100" height="100" fill="none" xmlns="http://www.w3.org/2000/svg"><g clip-path="url(#a)"><path d="M50 100c27.614 0 50-22.386 50-50S77.614 0 50 0 0 22.386 0 50s22.386 50 50 50Z" fill="#639"/><path d="M28 29.98h44c0-1.37.06-2.72-.01-4.06-.11-2.06.69-2.04 2.15-1.81 3.19.51 5.68 3.25 5.85 6.48.01.23.01.46.01.69v37.68c0 3.39-2.03 6.05-5.21 6.83-.58.14-1.19.2-1.79.2-15.33.01-30.66.01-46 0-4.03 0-6.99-2.95-7-6.97V31.15c0-3.91 2.98-7.05 6.73-7.15.89-.02 1.27.34 1.27 1.22v4.76Zm44 2.07H28v30.53c0 1.09-.25 1.36-1.33 1.43-2.74.18-4.75 2.48-4.66 5.34.08 2.62 2.19 4.64 4.91 4.64H73.1c2.72 0 4.82-2.02 4.9-4.65.09-2.84-1.89-5.12-4.6-5.33-1.18-.09-1.39-.32-1.39-1.5V32.04l-.01.01ZM25.97 62.06v-35.9C23.7 26.5 22 28.63 22 31.15v32.29c0 .17.02.35.04.61 1.15-1.09 2.44-1.72 3.93-1.98v-.01Zm48.05 0c1.52.24 2.79.91 3.98 2.01V31.1c0-.41-.05-.83-.13-1.24-.4-1.9-2.14-3.56-3.84-3.7v35.91l-.01-.01Zm-6.04 3.93V46.94c-1.78-.28-3.34-1.01-4.61-2.28-1.28-1.27-2.02-2.83-2.3-4.63h-5.06v7.69c0 .8-.36 1.26-.97 1.27-.64.02-1.02-.46-1.02-1.28v-7.67h-13v6.53c0 1.11-.3 1.42-1.39 1.42h-7.57v8h7.78c.71 0 1.14.36 1.18.94.04.62-.43 1.06-1.18 1.06h-7.77v7.95h11.96v-3.08c0-.29-.01-.58 0-.87.04-.59.45-.99 1-.99s.98.4.99 1c.02 1.17 0 2.33 0 3.5v.46h7.95V54.04h-7.95c0 1.23.01 2.45 0 3.67 0 .28-.02.66-.19.81-.26.23-.72.48-1 .4-.32-.09-.74-.53-.75-.83-.07-1.73-.06-3.46-.02-5.18.01-.58.46-.9 1.14-.9h17.81c.63.04 1.05.46 1.03 1.03-.02.54-.42.95-1.02.96-1.17.02-2.33 0-3.5 0h-3.47v12.62c0 1.07-.31 1.39-1.36 1.39H31.44c-1.07 0-1.39-.31-1.39-1.36V47.4c0-1.09.3-1.39 1.42-1.39h7.58v-6.75c0-.9.35-1.24 1.25-1.24h28.49c.9 0 1.25.35 1.25 1.25v27.49c0 .9-.35 1.25-1.25 1.25h-8.5c-.79 0-1.25-.37-1.25-1 0-.62.45-1 1.24-1h7.73l-.03-.02Zm-.02-21.15v-4.81h-4.81c.31 2.39 2.52 4.58 4.81 4.81Z" fill="#fff"/></g><defs><clipPath id="a"><path fill="#fff" d="M0 0h100v100H0z"/></clipPath></defs></svg>