<svg width="100" height="100" fill="none" xmlns="http://www.w3.org/2000/svg"><g clip-path="url(#a)"><path d="M50 100c27.614 0 50-22.386 50-50S77.614 0 50 0 0 22.386 0 50s22.386 50 50 50Z" fill="#639"/><path d="M39.89 55.58c-.27-.53-.76-.57-1.28-.57-1.35.01-2.7 0-4.11 0V28.36c0-1.02-.32-1.34-1.35-1.34h-8.19c-1.19 0-1.47.28-1.47 1.47V55c-1.39 0-2.72.03-4.05-.01-.61-.02-1.1.13-1.45.64v.75s.1.07.13.12c3.28 4.59 6.55 9.18 9.83 13.77.7.98 1.36.99 2.05.03 3.2-4.47 6.39-8.94 9.59-13.41.29-.4.55-.8.28-1.32l.02.01ZM29 68.29c-2.69-3.76-5.33-7.46-8.06-11.27h3.22c1.01 0 1.34-.33 1.34-1.35V29.08h7v26.43c0 1.24.26 1.51 1.49 1.51h3.07c-2.72 3.8-5.35 7.49-8.06 11.27Zm32.75-2.28h-5.71c-.02-.15-.03-.21-.03-.27 0-6.93 0-13.87.02-20.8 0-.22.23-.51.43-.63 4.76-2.98 7-7.26 6.42-12.85-.76-7.31-7.75-12.5-15-11.27-5.52.94-9.69 5.11-10.71 10.71-.95 5.19 1.63 10.64 6.34 13.35.38.22.5.45.5.87-.01 6.75 0 13.49-.01 20.24 0 .2-.02.4-.03.65h-.72c-1.71 0-3.42-.03-5.12.03-.35.01-.82.28-.98.58-.14.26.05.72.13 1.08.03.13.16.24.25.35 3.46 4.61 6.92 9.23 10.39 13.83.55.73 1.14 1.42 1.71 2.12h.75c.18-.19.39-.36.55-.57 3.92-5.21 7.82-10.42 11.74-15.63.28-.37.46-.75.23-1.21-.24-.48-.65-.58-1.14-.58h-.01ZM39 33.04c0-6.09 4.94-11.03 10.99-11.01C56.12 22.05 61 26.96 61 33.09c0 6.04-4.99 10.95-11.08 10.92-5.99-.02-10.92-4.98-10.91-10.97H39Zm11 48.29c-3.35-4.47-6.63-8.84-10-13.33h4.65c1.02 0 1.34-.32 1.34-1.34V45.38c2.68.84 5.3.83 8 0v21.13c0 1.2.28 1.48 1.46 1.48h4.54c-3.37 4.49-6.66 8.87-10 13.33l.01.01Zm31.9-25.74c-.24-.48-.65-.59-1.15-.58-.6.01-1.21 0-1.81 0H76.5V28.45c0-1.14-.29-1.43-1.45-1.43h-8.06c-1.23 0-1.5.27-1.5 1.5V55h-4.2c-.49 0-.92.07-1.18.54-.26.47-.07.87.21 1.27l9.69 13.56c.62.87 1.32.86 1.94 0 .84-1.16 1.67-2.34 2.51-3.5 2.39-3.35 4.79-6.71 7.19-10.06.27-.37.46-.75.23-1.21l.02-.01ZM71.01 68.28c-2.69-3.77-5.34-7.46-8.06-11.27h3.01c1.28 0 1.54-.26 1.54-1.52V29.06h7v26.49c0 1.19.28 1.46 1.47 1.46h3.08C76.34 60.8 73.7 64.5 71 68.28h.01ZM52.01 38c.55 0 1-.45 1-1s-.45-1-1-1h-3v-1h3c2.21 0 4-1.79 4-4s-1.79-4-4-4h-4c-.55 0-1 .45-1 1v5h-1c-.55 0-1 .45-1 1s.45 1 1 1h1v1h-1c-.55 0-1 .45-1 1s.45 1 1 1h1v1c0 .55.45 1 1 1s1-.45 1-1v-1h3Zm-3-9h3c1.1 0 2 .9 2 2s-.9 2-2 2h-3v-4Z" fill="#fff"/></g><defs><clipPath id="a"><path fill="#fff" d="M0 0h100v100H0z"/></clipPath></defs></svg>