<svg width="100" height="100" fill="none" xmlns="http://www.w3.org/2000/svg"><g clip-path="url(#a)"><path d="M50 100c27.614 0 50-22.386 50-50S77.614 0 50 0 0 22.386 0 50s22.386 50 50 50Z" fill="#639"/><path d="m87.77 51.72-1.87-2.23-3.84-10.83c-.14-.4-.52-.67-.94-.67H70V31c0-.55-.45-1-1-1H13c-.55 0-1 .45-1 1v30c0 .55.45 1 1 1h3v3c0 .55.45 1 1 1h3.09c.48 2.83 2.94 5 5.91 5 2.09 0 3.92-1.07 5-2.69A5.996 5.996 0 0 0 36 71c2.97 0 5.43-2.17 5.91-5H69s.06-.01.09-.02C69.56 68.82 72.03 71 75 71c3.31 0 6-2.69 6-6 0-.34-.04-.67-.09-1H87c.55 0 1-.45 1-1V52.36c0-.23-.08-.46-.23-.64ZM83.96 50H76v-6h5.83l2.13 6ZM14 32h54v28H39.64c-.09 0-.17.03-.25.05A5.97 5.97 0 0 0 36 59c-1.26 0-2.36.37-3.31 1h-3.38c-.95-.63-2.09-1-3.31-1-1.22 0-2.43.39-3.39 1.06a.875.875 0 0 0-.28-.06H14V32Zm4 30h2.81c-.35.61-.6 1.28-.72 2H18v-2Zm8 7c-2.21 0-4-1.79-4-4s1.79-4 4-4 4 1.79 4 4-1.79 4-4 4Zm10 0c-2.21 0-4-1.79-4-4s1.79-4 4-4 4 1.79 4 4-1.79 4-4 4Zm5.91-5c-.12-.72-.37-1.39-.72-2H68v1c0 .55.45 1 1 1h.09v.02S69.03 64 69 64H41.91ZM75 69c-2.21 0-4-1.79-4-4s1.79-4 4-4 4 1.79 4 4-1.79 4-4 4Zm5.19-7c-1.04-1.79-2.97-3-5.19-3-2.09 0-3.92 1.07-5 2.69V40h10.41l.71 2H75c-.55 0-1 .45-1 1v8c0 .55.45 1 1 1h10c.12 0 .23-.03.34-.07l.66.79V55h-1c-.55 0-1 .45-1 1s.45 1 1 1h1v5h-5.81Z" fill="#fff"/><path d="M75 66a1 1 0 1 0 0-2 1 1 0 0 0 0 2Zm-39 0a1 1 0 1 0 0-2 1 1 0 0 0 0 2Zm-10 0a1 1 0 1 0 0-2 1 1 0 0 0 0 2Zm39-10c.55 0 1-.45 1-1s-.45-1-1-1H17c-.55 0-1 .45-1 1s.45 1 1 1h48Z" fill="#fff"/></g><defs><clipPath id="a"><path fill="#fff" d="M0 0h100v100H0z"/></clipPath></defs></svg>