<svg width="100" height="100" fill="none" xmlns="http://www.w3.org/2000/svg"><g clip-path="url(#a)"><path d="M50 100c27.614 0 50-22.386 50-50S77.614 0 50 0 0 22.386 0 50s22.386 50 50 50Z" fill="#639"/><path d="M51.2 16c.56.13 1.11.25 1.67.38 5.46 1.37 9.25 6.09 9.39 11.7.03 1.15 0 2.3.02 3.45 0 .29.1.61.26.85 1.73 2.61.32 5.99-2.78 6.57-.39.07-.51.23-.57.58-.39 2.12-1.44 3.87-3.03 5.32-.22.2-.37.58-.39.89-.05.72-.25 1.63.09 2.14.34.5 1.27.62 1.95.88 3.06 1.18 6.12 2.36 9.17 3.54 3.86 1.49 5.95 4.46 6.01 8.6.03 2.06 0 4.12 0 6.17 0 .24.03.56-.11.7-.25.27-.62.63-.91.6-.33-.03-.68-.39-.9-.7-.14-.2-.07-.56-.07-.84-.02-2.23.05-4.47-.07-6.7-.14-2.7-1.63-4.62-4.05-5.7-2.24-1-4.57-1.8-6.87-2.68-.06-.02-.13-.02-.25-.03-.62 1.23-1.24 2.47-1.87 3.71-.33.65-.65 1.31-.98 1.96-.83 1.66-1.63 1.91-3.25.97-.52.58-.87 1.13-.71 2.03.99 5.53 1.9 11.07 2.85 16.6.12.69-.11 1.25-.57 1.75-.96 1.04-1.9 2.09-2.92 3.21h10.76V62.97c0-.29 0-.58.07-.85.13-.48.49-.73 1-.7.51.03.81.34.9.82.04.24.03.49.03.73v18.99c.21.02.4.04.59.04h4.33c.9 0 1.02-.12 1.02-1.04V72.4c.02-.84.38-1.29 1.01-1.28.61.01.98.45.98 1.25.01 2.97.03 5.93 0 8.9-.02 1.74-1.07 2.73-2.82 2.74H43.81c-.63-.05-1.02-.44-1.02-1s.4-.96 1.04-.98c1.04-.02 2.09 0 3.13 0h.79c-1.02-1.12-1.92-2.14-2.86-3.13-.6-.63-.79-1.31-.64-2.18.95-5.44 1.84-10.9 2.81-16.34.16-.87-.22-1.42-.71-2.01-.14.08-.25.15-.36.22-1.07.65-2.09.4-2.67-.73-.93-1.81-1.83-3.63-2.74-5.45-.11-.21-.22-.43-.36-.69-.3.11-.59.21-.87.32-1.86.72-3.72 1.43-5.58 2.15-3.06 1.18-4.72 3.49-4.74 6.75-.03 6.73-.01 13.46 0 20.18 0 .78.15.92.94.92h4.99V63.08c0-.22-.01-.44 0-.66.05-.59.44-.98.98-.97.58 0 .89.35.99.89.04.22.02.44.02.66v19.03h1.91c.78.01 1.22.39 1.21 1.02-.01.6-.44.97-1.19.97-3.09 0-6.17.02-9.26 0-1.43 0-2.41-.94-2.57-2.36-.03-.24-.03-.49-.03-.73 0-6.59.01-13.19 0-19.78-.01-3.39 1.32-6.04 4.16-7.9.5-.33 1.04-.59 1.6-.8 3.63-1.42 7.27-2.83 10.91-4.22.44-.17.56-.39.6-.85.13-1.29-.19-2.25-1.25-3.15-1.4-1.19-2.11-2.87-2.44-4.68-.07-.37-.21-.49-.58-.56-3.06-.56-4.47-3.93-2.74-6.51.16-.23.21-.57.23-.86.09-1.77-.02-3.56.24-5.29.8-5.32 4.99-9.36 10.29-10.19.17-.03.33-.09.49-.14h2.67Zm3.69 11.9a21.946 21.946 0 0 1-6 2.65c-2.1.58-4.25.81-6.48.71v6.04c0 .57.03 1.15.12 1.72.57 3.71 3.95 6.31 7.9 6.1 3.72-.2 6.78-3.21 6.89-6.89.08-2.43.03-4.87.03-7.3 0-.18-.06-.41-.18-.54-.74-.82-1.5-1.63-2.29-2.48l.01-.01Zm5.32 2.79c.45-4.89-.93-8.91-5.37-11.42-3.61-2.05-8.13-1.63-11.43 1.01-3.37 2.7-4.23 6.35-3.84 10.56.36-.14.83-.18.92-.38.52-1.14 1.45-1.22 2.5-1.18 2.61.1 5.13-.39 7.53-1.39 1.12-.47 2.18-1.07 3.25-1.65.73-.39 1.52-.63 2.16-.01 1.13 1.09 2.16 2.28 3.22 3.43.07.08.15.2.14.29-.04.67.39.74.91.74h.01ZM49.99 81.51c1.13-1.24 2.16-2.43 3.26-3.55.47-.47.54-.92.44-1.53-.67-3.83-1.31-7.67-1.97-11.5-.26-1.54-.53-3.08-.8-4.66-.43 0-.81.04-1.18 0-.6-.08-.75.21-.82.73-.12.92-.3 1.83-.45 2.75-.74 4.36-1.48 8.71-2.21 13.07-.04.22-.05.53.08.67 1.18 1.34 2.4 2.66 3.65 4.03v-.01Zm0-28.6c1.03-1.27 1.93-2.53 2.98-3.62.84-.87.82-1.81.72-2.9-2.48.97-4.93.94-7.51.03.07.75-.09 1.55.24 2.01 1.08 1.53 2.32 2.94 3.57 4.48Zm7.91-1.98c-.91-.35-1.73-.68-2.57-.97-.12-.04-.36 0-.44.1-1.16 1.39-2.29 2.8-3.46 4.24l3.53 2.49 2.94-5.86Zm-9.36 3.37c-1.16-1.43-2.27-2.81-3.4-4.17-.1-.12-.35-.22-.47-.18-.85.3-1.69.64-2.59.98l2.94 5.86 3.52-2.5v.01Zm10.85-21.69v4.31c1.1-.15 1.85-.96 1.9-2.05.06-1.08-.68-1.99-1.9-2.26ZM48.06 57.09c.45 1.66 1.73 1.1 2.75 1.18.78.06.77-.72 1.19-1.12-.62-.44-1.18-.87-1.77-1.25-.12-.08-.38-.05-.51.03-.57.37-1.12.78-1.65 1.16h-.01Zm-7.69-24.37c-1.16.22-1.92 1.1-1.88 2.15.03 1.08.79 1.93 1.88 2.07v-4.22Z" fill="#fff"/></g><defs><clipPath id="a"><path fill="#fff" d="M0 0h100v100H0z"/></clipPath></defs></svg>