<svg width="100" height="100" fill="none" xmlns="http://www.w3.org/2000/svg"><g clip-path="url(#a)"><path d="M50 100c27.614 0 50-22.386 50-50S77.614 0 50 0 0 22.386 0 50s22.386 50 50 50Z" fill="#639"/><path d="M50.17 85.5c-.52-.39-.62-.92-.62-1.55.02-3.05 0-6.11 0-9.16v-.85c-1.29 1.08-2.13 2.27-2.24 3.81-.1 1.44-.07 2.89-.08 4.34 0 .55-.17.98-.72 1.18-.56.19-1.25-.16-1.26-.78-.04-2.25-.36-4.53.46-6.72.2-.54.5-1.04.84-1.75-.95.63-1.79 1.11-2.54 1.7-.84.65-1.13 1.61-1.14 2.65v2.65c0 .75-.39 1.2-.98 1.22-.6.01-1.04-.44-1.04-1.17 0-1.15-.03-2.31.06-3.46.14-1.71 1.01-3.02 2.44-3.95 1.5-.97 3.03-1.89 4.54-2.85.93-.59 1.52-1.41 1.62-2.53.11-1.21-.81-2.27-2.02-2.35-.47-.03-.95-.03-1.42 0-1.02.05-1.83.77-2.03 1.78-.29 1.41-.33 1.44-1.76 1.47-.13 0-.27.02-.49.04v.87c-.02 2.12-1.33 3.43-3.43 3.44h-4.28c-.04 0-.09.02-.24.05.37.47.71.9 1.04 1.33.49.63.49 1.22.02 1.62-.51.43-1.08.31-1.62-.36-3.52-4.4-7.04-8.79-10.55-13.2-.28-.35-.52-.51-1-.42-1.45.28-2.85-.49-3.44-1.82-.6-1.33-.22-2.88.92-3.8 1.13-.9 2.76-.93 3.91-.06 1.17.88 1.6 2.4 1.01 3.76-.18.42-.13.68.15 1.02 2.53 3.13 5.03 6.29 7.57 9.42.18.22.55.38.84.39 1.76.04 3.53.02 5.29.02 1.51 0 1.82-.32 1.78-1.85 0-.13-.02-.26-.04-.47h-1.98c-.89-.02-1.29-.44-1.24-1.32.16-2.53 1.21-4.63 3.39-5.94 1.01-.61 1.06-1.29.9-2.15-1.18.35-2.35.72-3.54 1.06-.24.07-.49.09-.74.11-.91.08-1.14-.07-1.49-.99-.22.04-.46.09-.7.13-2.28.38-4.51.12-6.68-.66-.94-.34-1.12-.8-.72-1.77-.46-.29-.95-.57-1.4-.89a9.815 9.815 0 0 1-2.83-2.98c-.56-.9-.46-1.32.45-1.93-1.86-1.9-3.07-4.17-3.84-6.7-.06-.19-.18-.4-.15-.58.05-.38.07-.9.31-1.08.27-.21.78-.14 1.18-.13.18 0 .36.15.48.2-.29-1.34-.65-2.66-.86-4.01-.14-.91-.14-1.85-.08-2.77.02-.37.27-.82.56-1.06.39-.33.85-.11 1.24.19.16.12.33.23.56.38-.14-.9-.37-1.73-.38-2.56-.01-1.58.06-3.16.2-4.73.03-.35.44-.86.77-.95.33-.09.89.16 1.15.44 4.86 5.52 9.68 11.07 14.51 16.61.46.52.53 1.02.07 1.57-.37.45-.49 1-.08 1.42.27.28.77.47 1.16.46.59-.02.83-.51.92-1.08.22-1.48.93-2.08 2.41-2.1h.77c.33-2.93-.22-5.53-2.43-7.59-.13-.12-.36-.18-.55-.18-1.11-.02-2.22-.02-3.33 0-.86.01-1.23.34-1.38 1.18-.13.69-.48 1.01-1.06.99-.57-.03-.95-.43-.96-1.1-.02-1.09-.05-2.17 0-3.26.09-1.84 1.45-3.07 3.36-3.12.25 0 .5-.12.74-.18-.1-.21-.17-.44-.29-.64-1.17-1.93-.44-4.38 1.63-5.33.42-.19.58-.42.54-.86-.03-.29-.01-.59.05-.88.11-.54.49-.82 1.03-.79.53.03.98.36.91.9-.14 1.04.36 1.5 1.19 2.01 1.49.91 1.84 2.46 1.25 4.69.82 0 1.62-.01 2.42 0 .68.01 1.09.36 1.15.92.06.57-.3 1.03-.86 1.1-.24.03-.49 0-.79.08 1.56 1.55 3.01 3.16 3.87 5.22.63-.97 1.15-1.92 1.8-2.77.66-.85 1.44-1.6 2.23-2.47-.26-.02-.45-.04-.64-.05-.66-.04-1.05-.4-1.06-.99-.01-.58.38-1.01 1.02-1.04.72-.03 1.45-.01 2.17-.02.11 0 .22-.02.33-.03-.09-.5-.22-.98-.25-1.47-.09-1.55.71-2.92 2.12-3.55.49-.22.64-.48.58-.97-.03-.22-.01-.45.01-.68.06-.55.41-.87.94-.9.54-.03 1.06.28 1 .79-.14 1.23.62 1.69 1.45 2.3 1.49 1.1 1.74 3.22.74 4.83-.11.18-.16.39-.24.59.2.06.41.17.61.18 2.24.06 3.5 1.34 3.5 3.6v2.65c0 .74-.33 1.16-.91 1.22-.62.06-.98-.27-1.13-1.06-.14-.72-.52-1.08-1.25-1.1-1.18-.03-2.35-.02-3.53 0-.21 0-.46.16-.62.32-1.46 1.45-2.28 3.18-2.33 5.25-.02.7 0 1.39 0 2.19.4 0 .76-.02 1.11 0 1.18.06 1.92.73 2.12 1.9.02.13-.01.31.06.4.25.32.5.78.83.85.36.08.95-.11 1.16-.39.22-.28.25-.89.09-1.23-.56-1.19-.6-1.17.26-2.16 4.7-5.39 9.4-10.78 14.09-16.17.34-.39.69-.74 1.27-.57.57.16.72.62.81 1.14.42 2.37.29 4.72-.29 7.16.24-.15.4-.24.55-.35.4-.3.87-.59 1.29-.23.3.25.54.73.57 1.12.16 2.12-.15 4.19-.9 6.19-.06.15-.1.3-.14.45 0 .01.02.04.05.09.15-.06.31-.12.47-.2.44-.23.94-.3 1.24.09.22.29.36.81.27 1.16-.65 2.58-1.82 4.91-3.64 6.88-.11.11-.2.24-.31.36.89.6.99 1.02.44 1.92-1.04 1.68-2.47 2.92-4.21 3.82.35 1.15.17 1.51-.94 1.89-2.34.79-4.72 1.01-7.13.46-.49 1-.68 1.18-1.74.96-1.19-.24-2.34-.66-3.5-1.01-.19-.06-.36-.15-.63-.27 0 .53-.04.98.02 1.42.02.17.21.38.38.48 2.34 1.36 3.64 3.39 3.92 6.08.12 1.16-.26 1.59-1.42 1.59h-1.68c-.47 1.57.04 2.28 1.61 2.29h3.93c-.38-2.65.66-4.43 3.18-5.35 0-.39-.01-.8 0-1.2.03-.62.39-1 .95-1.03.58-.03 1.02.36 1.07.99.03.4 0 .81 0 1.26.22.08.43.15.63.24 1.6.73 2.52 1.99 2.61 3.74.09 1.7-.65 3.04-2.13 3.9-1.5.87-3.01.77-4.5-.11-.38-.22-.86-.38-1.3-.39-1.51-.05-3.03-.06-4.55 0-2.36.08-3.88-1.5-3.68-3.67.02-.2-.02-.4-.04-.66-.37 0-.71.01-1.04 0-.62-.03-.99-.33-1.09-.98-.26-1.68-.97-2.28-2.7-2.27-.43 0-.87-.02-1.28.08-1.2.32-1.84 1.55-1.5 2.79.25.89.8 1.55 1.58 2.04 1.44.89 2.87 1.8 4.31 2.69 1.81 1.12 2.68 2.75 2.7 4.86 0 .88.01 1.77 0 2.65-.02.74-.42 1.19-1.03 1.19-.6 0-.99-.45-1-1.2-.01-.84-.01-1.67 0-2.51.02-1.46-.55-2.58-1.83-3.32-.58-.34-1.14-.7-1.87-1.16.17.31.24.46.33.61a7.486 7.486 0 0 1 1.04 3.68c.02 1.27.02 2.53 0 3.8 0 .74-.42 1.19-1.02 1.19-.6 0-.99-.45-1-1.2-.01-1.15 0-2.31 0-3.46 0-1.88-.73-3.4-2.32-4.7v.84c0 3.05-.01 6.11 0 9.16 0 .62-.1 1.15-.62 1.54h-.81v.01Zm.37-20.17c1.66-1.32 2.02-1.44 4.15-1.45h.88c1.84 0 2.71-.87 2.71-2.69V47.47H42.9c0 4.81-.03 9.56.02 14.31.01 1.23.97 2.04 2.24 2.1.54.03 1.09.03 1.63 0 1.46-.08 2.72.33 3.75 1.45Zm-14-18.75c.41-.44.21-.72-.07-1.04-3.41-3.9-6.81-7.8-10.21-11.71-.67-.77-1.35-1.54-2.15-2.45-.07 2.43.33 4.58 1.28 6.61.18.39.49.76.83 1.02 1.86 1.4 3.75 2.77 5.62 4.15.13.09.26.18.38.29.46.41.54.93.22 1.39-.33.46-.9.56-1.44.22-.19-.12-.37-.26-.55-.4-2.55-1.87-5.1-3.75-7.65-5.62-.17-.12-.34-.24-.6-.42.23 2.36.85 4.44 2.14 6.28.24.33.58.63.94.82 4.95 2.58 9.91 5.13 14.87 7.68.19.1.4.18.65.3v-3c-.82-.1-1.71.02-2.33-.33-1.35-.76-2.59-1.73-3.83-2.67-.42-.32-.44-.84-.11-1.29.34-.46.81-.56 1.32-.29.23.13.45.29.69.45v.01Zm42.43-7.96c-.31.22-.49.34-.67.47-1 .74-2 1.48-3.01 2.21-.61.44-1.19.4-1.56-.08-.38-.49-.24-1.1.38-1.57.07-.06.14-.12.22-.16 1.04-.53 1.56-1.46 1.89-2.52.13-.41.27-.82.37-1.23.34-1.37.56-2.76.44-4.24-.12.09-.18.13-.22.17-4.07 4.67-8.14 9.34-12.22 14.01-.31.36-.23.61.07.91.9-.66 1.77-1.3 2.65-1.94 1-.74 1.98-1.51 3.02-2.18.3-.19.83-.21 1.17-.08.24.1.5.6.46.87-.06.35-.35.73-.65.95-2.31 1.74-4.67 3.42-6.98 5.17-1.19.9-2.38 1.64-3.96 1.12v3.22c.17-.08.27-.12.36-.17 5.12-2.64 10.24-5.28 15.36-7.93.18-.09.36-.21.48-.36 1.46-1.93 2.17-4.13 2.4-6.65v.01Zm-29.46 6.75c.29-3.5-.52-6.57-2.91-9.12-.86-.92-1.78-1.8-2.68-2.69-.11-.11-.24-.28-.36-.28-1.13-.02-2.26-.01-3.6-.01 1.21 1.21 2.27 2.25 3.32 3.3 1.33 1.32 2.27 2.89 2.61 4.73.21 1.14.17 2.33.28 3.5.02.2.22.54.36.55.99.05 1.98.03 2.99.03l-.01-.01Zm2.14 0h1.9c1.45 0 1.48 0 1.45-1.45-.07-3.05 1-5.6 3.21-7.69.85-.81 1.67-1.66 2.49-2.49.12-.12.21-.26.39-.49-1.2 0-2.28-.01-3.36.01-.15 0-.33.13-.45.25-.96.95-1.95 1.88-2.86 2.89-2.3 2.52-3.06 5.54-2.77 8.97Zm-29.57 1.01c.56 1.6 1.42 2.96 2.6 4.11.99.95 2.05 1.67 3.55 1.43.59-.1 1.22-.02 1.83-.02h2.41l.03-.15-10.42-5.37Zm56.98 0-10.41 5.37c1.93.14 3.82.15 5.7.13.17 0 .34-.1.5-.19 2.06-1.23 3.35-3.09 4.21-5.31ZM71.23 68.1c-1.25.01-2.22 1-2.2 2.26a2.236 2.236 0 0 0 2.26 2.22c1.22-.02 2.24-1.06 2.22-2.28-.02-1.24-1.03-2.21-2.28-2.2Zm-41-10.1c2.03.35 3.81.26 5.52-.47.22-.09.48-.22.58-.41.46-.87.87-1.77 1.29-2.64-.55-.57-1.04-.56-1.64-.13-1.02.71-2.09 1.34-3.15 2-.81.51-1.63 1.03-2.6 1.65Zm33.32-3.52c.41.86.81 1.7 1.21 2.53.07.14.16.3.29.36 1.83.86 3.73 1.03 5.83.63-.26-.18-.39-.29-.54-.38-1.72-1.09-3.46-2.14-5.15-3.27-.62-.41-1.09-.41-1.64.14v-.01Zm-24.9 12.66c1.07 0 2.04.01 3.01-.01.16 0 .4-.12.47-.25.29-.5.52-1.04.74-1.49l-1.74-1.9c-1.3.84-2.14 2.01-2.48 3.66v-.01Zm21.39-3.65-1.74 1.9c.22.45.46.98.73 1.49.06.11.22.25.34.25 1.03.02 2.06.01 3.15.01-.34-1.64-1.18-2.82-2.48-3.65Zm-34.64-9.5c1.07 1.09 2.2 1.79 3.51 2.21a.5.5 0 0 0 .38-.03c1.1-.68 2.2-1.38 3.29-2.07l-.05-.11H25.4Zm43.24 0-.04.11c1.1.69 2.19 1.38 3.3 2.07.08.05.22.07.31.04 1.32-.42 2.48-1.12 3.53-2.22h-7.1ZM43.01 29.5c0-.93-.77-1.68-1.69-1.68-.91 0-1.69.78-1.7 1.69 0 .95.78 1.71 1.74 1.7.94-.02 1.66-.76 1.65-1.71Zm16.81 1.71c.93 0 1.69-.73 1.72-1.65.02-.93-.79-1.75-1.72-1.73-.92.01-1.66.77-1.66 1.7 0 .94.73 1.68 1.67 1.68h-.01ZM39.47 55.35l-1.55 3.24c1.11-.3 1.99-.71 2.73-1.39.4-.37.27-1.08-.21-1.34-.3-.16-.6-.31-.97-.5v-.01Zm23.77 3.22-1.53-3.19c-.13.06-.21.09-.29.12-.24.12-.48.24-.72.37-.44.24-.57.95-.2 1.3.75.7 1.63 1.14 2.74 1.4Zm-40.9.92c.01-.65-.48-1.16-1.14-1.17-.65 0-1.17.51-1.16 1.15 0 .6.51 1.12 1.11 1.15.63.03 1.18-.49 1.19-1.13Zm14.03-23.81 2.96-.16c-.67-.66-1.11-1.5-2.17-1.09-.58.22-.81.65-.78 1.24l-.01.01Zm25.46-.15 2.92.15c.02-.68-.2-1.04-.74-1.24-1.07-.41-1.51.43-2.17 1.09h-.01ZM49.54 21.59V19.2l-.16.12c-.29-.38-.65-.72-.85-1.14-.09-.18.11-.73.26-.76.86-.19.84-1.5 1.86-1.41.23.02.5.14.65.31.49.55 1.08 1.09 1.33 1.74.24.62-.4.96-.99 1.12v2.37c.2-.02.37-.02.54-.05 1.33-.24 2.63.33 3.32 1.47.68 1.13.57 2.57-.22 3.63-.21.28-.35.67-.38 1.02-.08.96-.37 1.28-1.35 1.28h-5.91c-1 0-1.28-.31-1.35-1.35a1.64 1.64 0 0 0-.3-.84c-.88-1.12-1.01-2.56-.3-3.74.7-1.16 1.99-1.71 3.38-1.45.13.02.26.04.48.07h-.01Zm3.11 5.24c.36-.55.66-1.01.98-1.46.33-.45.39-.92.09-1.38-.29-.44-.73-.63-1.23-.48-.26.08-.5.29-.72.48-.8.71-1.56.72-2.35.01-.1-.09-.19-.2-.3-.28-.5-.38-1.12-.34-1.54.08-.41.41-.43 1.05-.07 1.55.33.46.64.95.99 1.48h4.15Zm-7.41 30.22c-.08 1.15-.05 2.31-.02 3.46.02.75.63 1.19 1.29.99.54-.16.73-.56.73-1.09 0-1.02-.02-2.04.01-3.05.03-.82.41-1.17 1.22-1.14v.73c0 1.18-.01 2.35.01 3.53.01.65.43 1.06.99 1.07.56 0 .97-.4 1.02-1.04.02-.18 0-.36 0-.54 0-1.06-.01-2.13 0-3.19 0-.22.13-.43.19-.64.16.18.37.34.49.55.15.25.22.54.33.81.45 1.13.89 2.27 1.37 3.39.24.57.74.78 1.27.6.55-.19.8-.71.62-1.32-.09-.3-.23-.59-.34-.88-.4-1.02-.81-2.04-1.22-3.08.687-.133 1.163.067 1.43.6.17.34.32.7.54 1.02.31.45.77.57 1.25.35.46-.21.74-.65.54-1.11-.4-.93-.8-1.89-1.41-2.67-.27-.34-1.08-.26-1.64-.36-.02 0-.04-.02-.06-.03-.3-1.4 0-2.02 1.07-2.24.71-.15 1.06-.55.99-1.14-.07-.61-.54-.93-1.3-.87-1.49.12-2.71 1.31-2.85 2.8-.05.49-.05.98-.07 1.48h-1.2v-.84c0-.84 0-1.67-.02-2.51-.02-.51-.31-.84-.82-.93-.48-.08-.81.12-1.09.52-.17.25-.4.49-.65.64-.66.4-.75 1.45-.05 1.72.78.3.6.8.55 1.37-2.06.41-3.07 1.34-3.18 3.03l.01.01Z" fill="#fff"/></g><defs><clipPath id="a"><path fill="#fff" d="M0 0h100v100H0z"/></clipPath></defs></svg>